<svg width="620" height="34" viewBox="0 0 620 34" xmlns="http://www.w3.org/2000/svg"><title>myntra/status_bar</title><g fill="none" fill-rule="evenodd"><rect fill="#000" width="620" height="34" rx="4"/><path d="M571.904 9.093c-.83 0-1.504.675-1.504 1.506v12.695c0 .832.677 1.506 1.504 1.506h34.192c.83 0 1.504-.675 1.504-1.506V10.599c0-.831-.677-1.506-1.504-1.506h-34.192zm36.523 4.96v5.787h1.471a1.01 1.01 0 0 0 1.009-1.008v-3.77a1.01 1.01 0 0 0-1.009-1.009h-1.471zM572.233 9.92c-.556 0-1.006.452-1.006 1v12.054c0 .552.45 1 1.006 1h33.534c.556 0 1.006-.452 1.006-1V10.919c0-.552-.45-.999-1.006-.999h-33.534z" fill="#FFF"/><rect fill="#FE3824" x="572.053" y="10.747" width="2.947" height="12.4" rx=".5"/><path d="M15.293 21.493a4.547 4.547 0 1 0 0-9.093 4.547 4.547 0 0 0 0 9.093zm12 0a4.547 4.547 0 1 0 0-9.093 4.547 4.547 0 0 0 0 9.093zm.174-.653a3.72 3.72 0 1 0 0-7.44 3.72 3.72 0 0 0 0 7.44zm10.826.653a4.547 4.547 0 1 0 0-9.093 4.547 4.547 0 0 0 0 9.093zm0-.653a3.72 3.72 0 1 0 0-7.44 3.72 3.72 0 0 0 0 7.44zm11.72.653a4.547 4.547 0 1 0 0-9.093 4.547 4.547 0 0 0 0 9.093zm0-.826a3.72 3.72 0 1 0 0-7.44 3.72 3.72 0 0 0 0 7.44zm11.574.826a4.547 4.547 0 1 0 0-9.093 4.547 4.547 0 0 0 0 9.093zm0-.826a3.72 3.72 0 1 0 0-7.44 3.72 3.72 0 0 0 0 7.44z" fill="#FFF"/></g></svg>