<svg width="292" height="594" viewBox="0 0 292 594" xmlns="http://www.w3.org/2000/svg" xmlns:xlink="http://www.w3.org/1999/xlink"><title>devices/iphone_large_white</title><defs><rect id="a" x=".201" y="74.621" width="6.049" height="24.874" rx="2.043"/><filter x="-50%" y="-50%" width="200%" height="200%" filterUnits="objectBoundingBox" id="b"><feGaussianBlur stdDeviation=".5" in="SourceAlpha" result="shadowBlurInner1"/><feOffset in="shadowBlurInner1" result="shadowOffsetInner1"/><feComposite in="shadowOffsetInner1" in2="SourceAlpha" operator="arithmetic" k2="-1" k3="1" result="shadowInnerInner1"/><feColorMatrix values="0 0 0 0 0 0 0 0 0 0 0 0 0 0 0 0 0 0 0.3 0" in="shadowInnerInner1"/></filter><rect id="c" x=".873" y="180.167" width="6.049" height="43.025" rx="2.043"/><filter x="-50%" y="-50%" width="200%" height="200%" filterUnits="objectBoundingBox" id="d"><feGaussianBlur stdDeviation=".5" in="SourceAlpha" result="shadowBlurInner1"/><feOffset in="shadowBlurInner1" result="shadowOffsetInner1"/><feComposite in="shadowOffsetInner1" in2="SourceAlpha" operator="arithmetic" k2="-1" k3="1" result="shadowInnerInner1"/><feColorMatrix values="0 0 0 0 0 0 0 0 0 0 0 0 0 0 0 0 0 0 0.3 0" in="shadowInnerInner1"/></filter><rect id="e" x=".873" y="127.058" width="6.049" height="43.025" rx="2.043"/><filter x="-50%" y="-50%" width="200%" height="200%" filterUnits="objectBoundingBox" id="f"><feGaussianBlur stdDeviation=".5" in="SourceAlpha" result="shadowBlurInner1"/><feOffset in="shadowBlurInner1" result="shadowOffsetInner1"/><feComposite in="shadowOffsetInner1" in2="SourceAlpha" operator="arithmetic" k2="-1" k3="1" result="shadowInnerInner1"/><feColorMatrix values="0 0 0 0 0 0 0 0 0 0 0 0 0 0 0 0 0 0 0.3 0" in="shadowInnerInner1"/></filter><rect id="g" x="285.845" y="126.386" width="6.049" height="43.025" rx="2.043"/><filter x="-50%" y="-50%" width="200%" height="200%" filterUnits="objectBoundingBox" id="h"><feGaussianBlur stdDeviation=".5" in="SourceAlpha" result="shadowBlurInner1"/><feOffset in="shadowBlurInner1" result="shadowOffsetInner1"/><feComposite in="shadowOffsetInner1" in2="SourceAlpha" operator="arithmetic" k2="-1" k3="1" result="shadowInnerInner1"/><feColorMatrix values="0 0 0 0 0 0 0 0 0 0 0 0 0 0 0 0 0 0 0.3 0" in="shadowInnerInner1"/></filter><rect id="i" x="6.922" y="4.034" width="278.923" height="585.543" rx="40.862"/><filter x="-50%" y="-50%" width="200%" height="200%" filterUnits="objectBoundingBox" id="j"><feGaussianBlur stdDeviation="3.5" in="SourceAlpha" result="shadowBlurInner1"/><feOffset in="shadowBlurInner1" result="shadowOffsetInner1"/><feComposite in="shadowOffsetInner1" in2="SourceAlpha" operator="arithmetic" k2="-1" k3="1" result="shadowInnerInner1"/><feColorMatrix values="0 0 0 0 0 0 0 0 0 0 0 0 0 0 0 0 0 0 0.05 0" in="shadowInnerInner1"/></filter></defs><g fill="none" fill-rule="evenodd"><use fill="#FFF" xlink:href="#a"/><use fill="#000" filter="url(#b)" xlink:href="#a"/><use fill="#FFF" xlink:href="#c"/><use fill="#000" filter="url(#d)" xlink:href="#c"/><use fill="#FFF" xlink:href="#e"/><use fill="#000" filter="url(#f)" xlink:href="#e"/><use fill="#FFF" xlink:href="#g"/><use fill="#000" filter="url(#h)" xlink:href="#g"/><path d="M2.89 224.573c0-.907 1.343-1.814 1.343-2.725V128.42c0-.94-1.344-1.88-1.344-2.82V43.594C2.89 19.517 22.402 0 46.475 0H246.29c24.073 0 43.587 19.52 43.587 43.58v82.24c0 .874-1.344 1.748-1.344 2.583v39.058c0 .875 1.344 1.75 1.344 2.623v379.934c0 24.076-19.514 43.593-43.587 43.593H46.476c-24.072 0-43.587-19.505-43.587-43.59V224.572z" fill="#FFF"/><path fill-opacity=".2" fill="#191919" d="M2.89 46.386h15.457v10.756H2.89zM274.42 46.386h15.457v10.756H274.42zM2.89 535.123h15.457v10.756H2.89zM274.42 535.123h15.457v10.756H274.42z"/><use fill="#FFF" xlink:href="#i"/><use fill="#000" filter="url(#j)" xlink:href="#i"/><rect fill="#000" x="17.627" y="70.514" width="257.512" height="453.739" rx="2.724"/><ellipse fill-opacity=".15" fill="#191919" cx="101.688" cy="36.975" rx="6.049" ry="6.05"/><rect fill-opacity=".15" fill="#191919" x="121.851" y="32.941" width="49.736" height="8.067" rx="4.034"/><rect fill-opacity=".15" fill="#191919" x="142.687" y="13.445" width="8.065" height="8.067" rx="3.405"/><ellipse fill-opacity=".15" fill="#191919" cx="147.391" cy="555.291" rx="22.852" ry="22.857"/></g></svg>