<svg width="225" height="402" viewBox="0 0 225 402" xmlns="http://www.w3.org/2000/svg" xmlns:xlink="http://www.w3.org/1999/xlink"><title>devices/iphone_small_white</title><defs><path d="M1.662 129.3c0-.522.774-1.045.774-1.57V73.94c0-.542-.774-1.083-.774-1.624v-47.24C1.662 11.226 12.882 0 26.74 0H141.7c13.85 0 25.08 11.222 25.08 25.08v47.36c0 .505-.775 1.008-.775 1.49v22.487c0 .503.774 1.007.774 1.51V316.7c0 13.85-11.22 25.076-25.08 25.076H26.74c-13.85 0-25.078-11.23-25.078-25.087V129.3z" id="b"/><filter x="-50%" y="-50%" width="200%" height="200%" filterUnits="objectBoundingBox" id="a"><feOffset dy="20" in="SourceAlpha" result="shadowOffsetOuter1"/><feGaussianBlur stdDeviation="15" in="shadowOffsetOuter1" result="shadowBlurOuter1"/><feColorMatrix values="0 0 0 0 0 0 0 0 0 0 0 0 0 0 0 0 0 0 0.3 0" in="shadowBlurOuter1" result="shadowMatrixOuter1"/><feOffset dy="11" in="SourceAlpha" result="shadowOffsetOuter2"/><feGaussianBlur stdDeviation="4.5" in="shadowOffsetOuter2" result="shadowBlurOuter2"/><feColorMatrix values="0 0 0 0 0 0 0 0 0 0 0 0 0 0 0 0 0 0 0.22 0" in="shadowBlurOuter2" result="shadowMatrixOuter2"/><feMerge><feMergeNode in="shadowMatrixOuter1"/><feMergeNode in="shadowMatrixOuter2"/></feMerge></filter><rect id="c" x="3.982" y="2.322" width="160.476" height="337.131" rx="23.51"/><filter x="-50%" y="-50%" width="200%" height="200%" filterUnits="objectBoundingBox" id="d"><feGaussianBlur stdDeviation="2" in="SourceAlpha" result="shadowBlurInner1"/><feOffset in="shadowBlurInner1" result="shadowOffsetInner1"/><feComposite in="shadowOffsetInner1" in2="SourceAlpha" operator="arithmetic" k2="-1" k3="1" result="shadowInnerInner1"/><feColorMatrix values="0 0 0 0 0 0 0 0 0 0 0 0 0 0 0 0 0 0 0.05 0" in="shadowInnerInner1"/></filter></defs><g transform="translate(28 10)" fill="none" fill-rule="evenodd"><use fill="#000" filter="url(#a)" xlink:href="#b"/><use fill="#FFF" xlink:href="#b"/><rect fill="#191919" x=".115" y="42.964" width="3.48" height="14.321" rx="1.175"/><rect fill="#191919" x=".502" y="103.733" width="3.48" height="24.772" rx="1.175"/><rect fill="#191919" x=".502" y="73.155" width="3.48" height="24.772" rx="1.175"/><rect fill="#FFF" x="164.459" y="72.768" width="3.48" height="24.772" rx="1.175"/><path fill-opacity=".2" fill="#191919" d="M1.662 26.707h8.894V32.9H1.662zM157.885 26.707h8.894V32.9h-8.895zM1.662 308.1h8.894v6.194H1.662zM157.885 308.1h8.894v6.194h-8.895z"/><use fill="#FFF" xlink:href="#c"/><use fill="#000" filter="url(#d)" xlink:href="#c"/><ellipse fill="#DDD" cx="58.506" cy="21.288" rx="3.48" ry="3.484"/><rect fill="#DDD" x="70.106" y="18.966" width="28.615" height="4.645" rx="2.322"/><rect fill="#DDD" x="82.094" y="7.741" width="4.64" height="4.645" rx="1.959"/><ellipse fill="#DDD" cx="84.801" cy="319.713" rx="13.147" ry="13.16"/></g></svg>