<svg width="168" height="342" viewBox="0 0 168 342" xmlns="http://www.w3.org/2000/svg" xmlns:xlink="http://www.w3.org/1999/xlink"><title>devices/iphone_small_black</title><defs><rect id="a" x="3.982" y="2.322" width="160.476" height="337.131" rx="23.51"/><filter x="-50%" y="-50%" width="200%" height="200%" filterUnits="objectBoundingBox" id="b"><feGaussianBlur stdDeviation="2" in="SourceAlpha" result="shadowBlurInner1"/><feOffset in="shadowBlurInner1" result="shadowOffsetInner1"/><feComposite in="shadowOffsetInner1" in2="SourceAlpha" operator="arithmetic" k2="-1" k3="1" result="shadowInnerInner1"/><feColorMatrix values="0 0 0 0 0 0 0 0 0 0 0 0 0 0 0 0 0 0 0.05 0" in="shadowInnerInner1"/></filter></defs><g fill="none" fill-rule="evenodd"><path d="M1.662 129.3c0-.522.774-1.045.774-1.57V73.94c0-.542-.774-1.083-.774-1.624v-47.24C1.662 11.226 12.882 0 26.74 0H141.7c13.85 0 25.08 11.222 25.08 25.08v47.36c0 .505-.775 1.008-.775 1.49v22.487c0 .503.774 1.007.774 1.51V316.7c0 13.85-11.22 25.076-25.08 25.076H26.74c-13.85 0-25.078-11.23-25.078-25.087V129.3z" fill="#181818"/><rect fill="#191919" x=".115" y="42.964" width="3.48" height="14.321" rx="1.175"/><rect fill="#191919" x=".502" y="103.733" width="3.48" height="24.772" rx="1.175"/><rect fill="#191919" x=".502" y="73.155" width="3.48" height="24.772" rx="1.175"/><rect fill="#191919" x="164.459" y="72.768" width="3.48" height="24.772" rx="1.175"/><path fill-opacity=".2" fill="#191919" d="M1.662 26.707h8.894V32.9H1.662zM157.885 26.707h8.894V32.9h-8.895zM1.662 308.1h8.894v6.194H1.662zM157.885 308.1h8.894v6.194h-8.895z"/><use fill="#191919" xlink:href="#a"/><use fill="#000" filter="url(#b)" xlink:href="#a"/><rect fill="#000" x="10.142" y="40.599" width="148.157" height="261.244" rx="1.567"/><ellipse fill-opacity=".05" fill="#FFF" cx="58.506" cy="21.288" rx="3.48" ry="3.484"/><rect fill-opacity=".05" fill="#FFF" x="70.106" y="18.966" width="28.615" height="4.645" rx="2.322"/><rect fill-opacity=".05" fill="#FFF" x="82.094" y="7.741" width="4.64" height="4.645" rx="1.959"/><ellipse fill-opacity=".05" fill="#FFF" cx="84.801" cy="319.713" rx="13.147" ry="13.16"/></g></svg>